<svg xmlns="http://www.w3.org/2000/svg" width="92" height="92" id="cart" fill='#fff'>
  <path d="M 91.8 27.3 L 81.1 61 C 80.3 63.4 78.2 65 75.7 65 L 34.4 65 C 32 65 29.7 63.5 28.9 61.3 L 13.1 19 L 4 19 C 1.8 19 0 17.2 0 15 C 0 12.8 1.8 11 4 11 L 15.9 11 C 17.6 11 19.1 12.1 19.7 13.7 L 36 57 L 74 57 L 82.694 30.146 C 82.807 29.999 86.746 22.39 87.186 22.609 C 88.486 22.609 90.5 22.7 91.2 23.7 C 92 24.7 92.2 26.1 91.8 27.3 Z M 36.4 70.3 C 34.7 70.3 33 71 31.8 72.2 C 30.6 73.4 29.9 75.1 29.9 76.8 C 29.9 78.5 30.6 80.2 31.8 81.4 C 33 82.6 34.7 83.3 36.4 83.3 C 38.1 83.3 39.8 82.6 41 81.4 C 42.2 80.2 42.9 78.5 42.9 76.8 C 42.9 75.1 42.2 73.4 41 72.2 C 39.8 71 38.1 70.3 36.4 70.3 Z M 72.3 70.3 C 70.6 70.3 68.9 71 67.7 72.2 C 66.5 73.4 65.8 75.1 65.8 76.8 C 65.8 78.5 66.5 80.2 67.7 81.4 C 68.9 82.6 70.6 83.3 72.3 83.3 C 74 83.3 75.7 82.6 76.9 81.4 C 78.1 80.2 78.8 78.5 78.8 76.8 C 78.8 75.1 78.1 73.4 76.9 72.2 C 75.7 71 74 70.3 72.3 70.3 Z"></path>
</svg>